<?xml version="1.0" standalone="no"?>
<!DOCTYPE svg PUBLIC "-//W3C//DTD SVG 20010904//EN"
 "http://www.w3.org/TR/2001/REC-SVG-20010904/DTD/svg10.dtd">
<svg version="1.0" xmlns="http://www.w3.org/2000/svg"
 width="654.000000pt" height="654.000000pt" viewBox="0 0 654.000000 654.000000"
 preserveAspectRatio="xMidYMid meet">
<metadata>
Created by potrace 1.14, written by Peter Selinger 2001-2017
</metadata>
<g transform="translate(0.000000,654.000000) scale(0.100000,-0.100000)"
fill="#000000" stroke="none">
<path d="M2540 5784 c0 -6 -26 -10 -62 -10 -35 0 -88 -4 -118 -8 -30 -5 -63
-9 -72 -9 -10 -1 -18 -4 -18 -7 0 -5 -53 -28 -77 -33 -5 -1 -15 -7 -23 -14 -8
-7 -18 -12 -21 -11 -3 2 -16 -8 -30 -22 -13 -14 -37 -36 -53 -48 -16 -12 -26
-22 -22 -22 3 0 -2 -9 -11 -19 -35 -38 -42 -49 -36 -55 4 -3 1 -6 -5 -6 -7 0
-12 -4 -12 -9 0 -5 -8 -26 -17 -47 -9 -22 -19 -46 -22 -54 -3 -8 -6 -894 -7
-1969 -2 -1723 -1 -1957 13 -1977 8 -13 13 -24 11 -26 -3 -4 32 -86 44 -103 4
-5 19 -23 33 -39 14 -16 25 -33 25 -37 0 -5 7 -9 15 -9 8 0 15 -7 15 -16 0 -8
4 -13 8 -10 5 3 14 -4 22 -14 8 -10 17 -17 21 -14 4 2 13 -1 21 -8 7 -7 32
-23 55 -36 31 -16 43 -19 46 -10 4 10 6 10 6 1 1 -7 10 -13 20 -13 11 0 22 -4
25 -9 3 -4 17 -7 31 -6 14 2 27 0 29 -4 2 -3 26 -6 53 -5 26 1 54 -3 62 -10
11 -8 13 -8 8 1 -5 8 8 11 47 9 52 -2 54 -1 58 26 3 15 0 32 -5 37 -5 5 -5 11
2 15 7 4 7 15 1 30 -5 13 -6 26 -3 29 3 3 1 20 -5 36 -8 22 -8 31 0 31 7 0 7
4 1 13 -6 6 -9 20 -8 29 2 10 0 18 -4 18 -4 0 -8 17 -9 37 -2 21 -8 40 -14 44
-6 4 -8 11 -4 17 3 6 1 14 -5 17 -5 4 -8 13 -5 21 3 8 1 14 -4 14 -6 0 -10 8
-10 18 0 10 -6 24 -12 31 -11 11 -10 13 2 7 8 -4 6 0 -4 8 -11 9 -17 16 -13
16 9 0 -73 164 -84 168 -5 2 -7 8 -3 13 3 5 0 9 -6 9 -6 0 -8 5 -5 10 3 6 1
10 -4 10 -6 0 -11 6 -11 14 0 7 -7 19 -15 26 -9 7 -13 15 -11 17 2 3 -3 13
-12 23 -33 36 -42 49 -42 60 0 5 -4 10 -10 10 -5 0 -12 11 -16 25 -3 14 -10
22 -16 19 -5 -3 -12 3 -15 15 -3 12 -9 21 -14 21 -5 0 -9 7 -9 15 0 8 -4 15
-10 15 -5 0 -10 4 -10 10 0 5 16 2 35 -7 19 -9 31 -21 28 -26 -3 -6 -1 -7 5
-3 6 4 20 -1 31 -11 10 -10 36 -31 56 -48 56 -46 105 -93 105 -101 0 -3 15
-22 33 -40 43 -45 67 -73 67 -79 0 -3 11 -18 24 -32 14 -15 23 -30 21 -34 -3
-4 2 -9 10 -13 8 -3 15 -12 15 -20 0 -7 7 -16 15 -20 8 -3 15 -15 15 -26 0
-11 5 -20 10 -20 6 0 10 -7 10 -15 0 -8 4 -15 8 -15 8 0 52 -84 51 -96 0 -4 5
-10 13 -15 7 -5 13 -12 14 -16 2 -16 56 -123 65 -128 5 -4 7 -10 5 -13 -6 -10
50 -83 58 -75 3 3 6 0 6 -8 0 -8 15 -27 32 -44 17 -16 28 -23 24 -15 -4 8 0 6
8 -4 9 -11 16 -16 16 -10 0 5 4 4 8 -2 13 -20 70 -33 129 -29 77 5 115 16 141
42 8 7 17 11 22 8 4 -3 11 2 14 11 3 8 10 13 15 9 5 -3 13 4 16 16 4 11 9 18
13 15 3 -3 22 12 43 33 21 21 45 41 54 44 14 6 14 3 1 -22 -9 -16 -12 -31 -9
-35 4 -3 1 -6 -6 -6 -7 0 -9 -4 -6 -10 3 -5 1 -10 -4 -10 -6 0 -10 -3 -9 -7 4
-15 -21 -73 -32 -73 -7 0 -6 -5 2 -13 7 -8 28 -13 50 -11 26 2 36 -1 32 -8 -5
-7 -3 -8 7 -2 20 13 102 13 118 0 11 -8 13 -8 8 0 -5 8 12 11 57 10 35 0 62 2
60 6 -3 4 14 5 36 3 22 -2 39 -1 36 3 -2 4 18 7 46 7 27 0 52 4 55 8 3 4 12 2
21 -5 9 -7 13 -8 9 -2 -4 7 2 14 13 17 11 3 18 1 15 -3 -3 -4 4 -6 15 -3 11 3
20 10 20 17 0 6 5 4 10 -4 7 -11 10 -11 10 -2 0 7 5 10 10 7 6 -3 10 0 10 7 0
8 3 9 8 3 9 -13 35 -18 27 -5 -4 6 4 10 19 10 13 0 31 6 38 13 13 14 21 17 39
17 5 0 7 4 4 10 -3 5 -2 10 3 10 6 0 23 12 40 28 52 48 82 72 82 66 0 -3 12 8
26 25 14 17 30 28 35 25 5 -3 8 -2 7 3 -3 10 98 113 111 113 5 0 13 9 16 20 3
11 13 20 21 20 8 0 13 6 11 13 -1 6 4 11 11 10 6 -2 12 2 12 7 0 6 24 35 53
64 28 30 58 63 66 74 8 12 17 19 21 17 3 -2 11 9 18 24 7 15 21 37 32 49 11
12 20 28 20 37 0 9 3 14 8 12 9 -6 26 13 30 33 2 8 8 17 13 18 5 2 7 8 3 13
-3 5 0 9 6 9 6 0 9 4 6 9 -3 5 1 11 9 15 8 3 15 12 15 21 0 8 4 15 9 15 5 0
15 16 22 35 7 19 16 35 20 35 6 0 15 23 17 44 0 5 4 12 9 15 14 10 43 72 38
81 -3 4 2 10 10 14 8 3 12 12 9 20 -3 8 0 17 5 21 6 3 9 10 6 15 -3 5 -1 11 4
15 6 3 8 12 4 20 -3 8 -1 15 4 15 5 0 10 6 11 13 1 6 4 30 7 52 13 87 13 101
-2 132 -12 27 -18 31 -33 23 -9 -5 -20 -7 -23 -3 -4 3 -13 0 -22 -7 -25 -21
-17 5 13 39 26 30 92 51 92 29 0 -5 4 -7 9 -4 10 7 28 -12 33 -34 2 -8 6 -17
10 -20 6 -5 11 -61 9 -113 -1 -20 -5 -26 -13 -21 -8 5 -8 1 1 -10 9 -10 11
-20 5 -24 -5 -4 -10 -14 -10 -22 -4 -36 -13 -70 -29 -100 -11 -21 -12 -30 -4
-24 7 4 3 -6 -9 -23 -12 -17 -19 -33 -15 -37 3 -3 2 -6 -3 -6 -6 0 -16 -16
-23 -35 -7 -19 -17 -35 -22 -35 -6 0 -8 -4 -4 -10 7 -11 -14 -51 -33 -63 -7
-5 -10 -12 -7 -18 4 -5 0 -16 -7 -24 -30 -33 -38 -45 -32 -45 3 0 1 -6 -5 -13
-6 -8 -7 -17 -3 -21 4 -4 1 -6 -7 -4 -8 2 -17 -9 -22 -25 l-8 -28 37 27 c20
16 45 37 55 48 9 10 17 16 17 12 0 -4 6 -1 14 6 8 7 12 16 9 21 -2 4 0 7 6 7
5 0 26 16 45 35 20 19 41 35 47 35 5 0 7 5 4 10 -3 6 1 13 9 16 9 3 16 10 16
14 0 5 5 21 12 37 15 38 27 81 33 128 2 11 4 21 5 23 2 1 4 11 5 22 1 11 3 21
4 23 4 4 11 67 16 132 7 78 7 69 0 150 -10 107 -13 130 -15 130 -1 0 -4 16 -7
35 -2 19 -8 37 -12 40 -3 3 -6 15 -5 28 1 12 -2 22 -7 22 -5 0 -6 6 -3 14 3 8
1 17 -5 21 -6 3 -11 15 -11 26 0 10 -5 19 -11 19 -5 0 -8 4 -4 9 3 5 -2 17
-11 25 -8 9 -13 16 -9 16 3 0 -6 22 -22 50 -15 27 -31 50 -35 50 -5 0 -8 9 -8
21 0 11 -4 17 -10 14 -5 -3 -10 0 -10 8 0 7 -13 26 -30 42 -16 15 -27 32 -24
37 3 4 0 8 -7 8 -14 0 -59 47 -59 61 0 6 -4 8 -9 5 -5 -3 -12 1 -15 10 -3 8
-11 12 -17 8 -8 -4 -9 -3 -5 4 4 7 -3 17 -18 24 -14 6 -26 14 -26 17 0 4 -18
17 -40 31 -22 14 -40 28 -40 32 0 5 -6 8 -13 8 -7 0 -22 8 -33 18 -11 9 -26
18 -34 20 -8 2 -18 9 -22 15 -4 7 -8 8 -8 2 0 -5 -6 -3 -13 5 -14 18 -47 25
-47 11 0 -5 5 -13 11 -16 6 -4 8 -13 5 -20 -2 -7 -2 -16 2 -20 4 -4 8 -11 8
-16 1 -5 2 -10 4 -11 1 -2 4 -16 6 -33 3 -16 8 -32 12 -35 4 -3 8 -18 10 -33
2 -22 0 -27 -10 -21 -10 6 -11 5 -1 -7 14 -17 13 -166 -1 -188 -9 -14 -11 -25
-18 -83 -1 -10 -7 -18 -12 -18 -5 0 -6 -3 -3 -6 4 -4 -3 -20 -14 -35 -11 -16
-17 -29 -13 -29 3 0 1 -7 -6 -15 -7 -8 -10 -15 -6 -15 4 0 0 -10 -9 -23 -8
-13 -12 -27 -8 -30 3 -4 2 -7 -3 -7 -5 0 -11 -12 -12 -27 -1 -15 -5 -29 -10
-32 -9 -7 -12 -37 -11 -126 0 -110 3 -145 12 -145 5 0 6 -4 3 -9 -3 -4 -1 -22
4 -40 6 -22 5 -31 -3 -31 -8 0 -8 -3 -2 -8 6 -4 10 -14 10 -22 -1 -8 1 -19 4
-25 3 -5 6 -23 8 -40 6 -100 10 -133 17 -143 4 -7 3 -12 -3 -12 -6 0 -6 -11
-1 -30 6 -21 5 -30 -3 -30 -8 0 -8 -3 -2 -8 14 -9 15 -183 2 -175 -6 4 -7 1
-2 -8 8 -12 8 -43 0 -119 -2 -14 -4 -27 -5 -30 -4 -9 -7 -24 -8 -43 -1 -10 -7
-15 -13 -12 -6 4 -8 13 -5 21 3 8 2 14 -2 14 -4 0 -8 12 -8 27 -3 57 -8 98
-13 108 -3 6 -6 19 -6 30 0 11 -4 26 -8 33 -5 7 -3 12 4 12 9 0 9 3 0 14 -6 8
-11 18 -10 22 1 5 1 11 -1 14 -3 9 -11 55 -15 90 -2 19 -4 35 -5 35 -3 0 -11
55 -13 83 0 12 -4 22 -7 22 -5 0 -10 37 -13 88 0 6 -5 12 -10 12 -6 0 -8 3 -4
6 3 3 2 17 -3 30 -7 16 -6 24 1 24 8 0 8 4 0 13 -6 8 -8 17 -4 20 3 4 2 7 -3
7 -5 0 -10 12 -11 28 -4 41 -8 56 -17 71 -7 11 -6 12 5 6 12 -7 12 -6 1 7 -13
17 -22 59 -25 125 -1 24 -5 43 -8 43 -6 0 -4 40 7 135 3 33 6 66 7 73 0 6 4
12 9 12 5 0 6 5 3 10 -3 6 -1 10 5 10 6 0 9 4 6 9 -4 5 4 31 15 58 20 44 30
83 32 125 1 9 4 15 7 13 10 -6 6 218 -3 233 -5 7 -3 12 5 12 8 0 9 3 3 8 -11
8 -17 25 -20 62 -1 14 -3 25 -5 25 -1 0 -4 13 -6 30 -3 16 -10 35 -15 41 -7 8
-6 14 3 17 10 4 10 6 1 6 -7 1 -13 9 -13 19 0 10 -3 22 -7 26 -4 3 -8 15 -10
26 -5 36 -8 45 -14 50 -4 3 -9 16 -10 30 -2 14 -7 28 -12 31 -4 3 -9 15 -12
27 -2 11 -8 29 -14 40 -6 11 -7 22 -4 26 3 3 1 6 -6 6 -8 0 -11 7 -7 15 3 8 1
15 -5 15 -6 0 -9 7 -5 15 3 8 1 15 -5 15 -6 0 -7 5 -4 10 3 6 1 10 -5 10 -6 0
-8 5 -5 10 3 6 2 10 -3 10 -5 0 -9 7 -10 15 -1 8 -3 22 -4 30 -1 8 -5 15 -9
15 -8 0 -34 70 -31 83 1 4 -3 7 -9 7 -6 0 -9 6 -6 14 3 8 -1 17 -10 20 -8 4
-13 13 -9 21 3 8 1 15 -5 15 -6 0 -9 7 -5 15 3 8 1 15 -4 15 -6 0 -10 9 -10
20 0 11 -4 20 -10 20 -5 0 -10 -7 -10 -15 0 -8 -9 -19 -20 -25 -11 -6 -20 -15
-20 -21 0 -20 -41 -69 -52 -63 -7 4 -8 2 -4 -4 4 -7 -3 -17 -18 -24 -14 -6
-26 -15 -26 -20 0 -4 -7 -8 -15 -8 -8 0 -15 -4 -15 -8 0 -10 -80 -48 -92 -44
-5 1 -8 -3 -8 -9 0 -5 -4 -8 -9 -4 -5 3 -13 1 -16 -5 -4 -6 16 -33 44 -61 28
-28 51 -52 51 -55 0 -3 11 -15 25 -28 13 -13 22 -26 18 -29 -3 -4 2 -7 12 -7
10 0 16 -3 12 -6 -3 -4 -1 -12 6 -20 29 -32 37 -44 32 -44 -4 0 2 -12 13 -27
24 -35 57 -106 54 -115 -1 -5 3 -8 9 -8 6 0 9 -6 6 -14 -3 -8 -2 -16 3 -18 5
-2 11 -16 14 -33 2 -16 5 -30 6 -30 1 0 6 -17 13 -47 1 -7 5 -17 9 -23 6 -10
8 -35 11 -147 1 -38 6 -68 11 -68 5 0 4 -6 -2 -13 -12 -15 -13 -232 -1 -257 4
-8 12 -26 18 -40 11 -25 32 -61 41 -70 13 -13 40 -82 35 -91 -4 -5 -1 -9 4 -9
6 0 11 -9 11 -21 0 -11 5 -30 11 -41 9 -16 8 -19 -2 -13 -9 6 -10 4 -3 -6 5
-8 9 -25 10 -39 0 -14 4 -32 8 -39 5 -8 3 -17 -5 -22 -12 -7 -12 -9 0 -9 10 0
11 -3 2 -14 -9 -11 -9 -15 1 -19 8 -4 9 -8 3 -14 -5 -4 -10 -26 -9 -48 0 -22
-2 -44 -5 -50 -3 -5 -6 -12 -7 -15 -10 -54 -18 -80 -25 -80 -5 0 -8 -3 -7 -7
4 -13 -46 -105 -59 -110 -7 -3 -13 -9 -13 -14 0 -19 -113 -112 -123 -102 -4 3
-9 -2 -13 -11 -3 -9 -10 -14 -14 -11 -5 3 -11 1 -15 -5 -4 -6 -11 -8 -16 -5
-5 4 -9 1 -9 -5 0 -6 -5 -8 -11 -5 -5 4 -19 -1 -30 -11 -10 -9 -19 -15 -19
-12 0 4 -21 0 -46 -8 -26 -7 -50 -11 -54 -9 -5 3 -12 1 -15 -5 -5 -8 -11 -8
-20 0 -9 8 -15 8 -20 0 -3 -6 -11 -8 -16 -5 -5 4 -9 3 -9 -2 0 -4 -83 -8 -185
-7 -102 0 -185 -1 -185 -3 0 -9 22 -99 28 -113 3 -8 7 -22 8 -30 6 -35 32 -92
53 -115 12 -14 19 -31 15 -37 -4 -7 -3 -8 4 -4 7 4 16 -2 23 -16 5 -13 32 -36
59 -53 26 -16 46 -34 42 -40 -3 -5 -2 -7 3 -3 4 4 14 3 22 -3 7 -6 13 -8 13
-5 0 4 7 0 16 -8 8 -9 20 -14 25 -11 5 4 9 1 9 -5 0 -6 4 -9 9 -5 5 3 16 -2
25 -10 9 -9 17 -11 21 -5 4 6 15 4 31 -6 13 -9 24 -13 24 -10 0 4 10 2 21 -5
17 -9 20 -8 13 3 -6 10 -5 11 7 2 8 -6 41 -12 74 -13 81 -3 99 -9 84 -27 -6
-8 -20 -14 -31 -14 -10 0 -21 -6 -24 -13 -3 -8 -11 -14 -19 -15 -8 -1 -22 -3
-30 -4 -8 -1 -15 -4 -15 -8 0 -7 -29 -11 -85 -13 -22 -1 -43 -6 -47 -12 -5 -6
-8 -6 -8 0 0 6 -17 10 -38 10 -20 -1 -56 5 -79 11 -22 7 -44 10 -47 7 -3 -4
-6 -1 -6 5 0 7 -13 12 -30 12 -16 0 -30 5 -30 11 0 6 -9 8 -21 4 -13 -5 -19
-3 -15 3 7 11 -16 22 -45 22 -11 0 -17 4 -14 10 3 5 0 10 -8 10 -18 0 -99 41
-109 55 -4 6 -8 7 -8 2 0 -6 -46 19 -60 33 -8 8 -137 70 -146 70 -4 0 -27 9
-51 20 -24 11 -64 30 -90 42 -27 12 -51 26 -54 31 -3 5 -9 8 -13 7 -11 -2
-136 61 -136 69 0 4 -16 13 -35 21 -19 8 -35 17 -35 22 0 4 -7 8 -17 8 -9 0
-13 3 -10 7 4 3 -2 12 -13 20 -11 8 -20 21 -20 29 0 8 -4 14 -9 14 -11 0 -53
97 -57 130 -1 14 -3 25 -4 25 -8 0 -5 80 5 122 7 29 10 55 7 58 -3 3 1 5 8 5
7 0 10 3 7 7 -4 3 0 17 8 30 9 13 12 23 8 23 -5 0 -3 4 4 8 6 4 13 14 15 22 2
8 8 20 13 27 6 7 15 18 21 25 5 7 13 21 17 31 4 11 12 15 19 11 7 -4 10 -3 5
1 -10 11 23 46 36 38 5 -3 7 -2 4 4 -4 6 4 19 16 30 34 31 104 73 111 66 3 -4
6 -1 6 6 0 7 6 11 12 9 30 -10 34 19 34 222 l-1 205 -40 1 c-47 0 -156 -36
-196 -65 -16 -12 -33 -21 -39 -21 -5 0 -10 -5 -10 -10 0 -6 -11 -15 -25 -22
-13 -6 -22 -14 -20 -19 3 -4 -4 -11 -16 -14 -11 -4 -18 -9 -15 -12 2 -3 -8
-17 -23 -32 -15 -15 -36 -41 -46 -59 -11 -18 -23 -32 -28 -32 -4 0 -5 -4 -2
-10 3 -5 1 -10 -6 -10 -7 0 -9 -3 -6 -7 4 -3 1 -13 -7 -22 -8 -9 -15 -20 -16
-26 -2 -5 -7 -21 -13 -35 -6 -14 -10 -28 -9 -32 1 -5 -2 -8 -7 -8 -5 0 -12
-14 -16 -30 -4 -17 -11 -30 -15 -30 -5 0 -7 -7 -3 -16 4 -12 2 -15 -8 -12 -9
3 -13 15 -10 34 2 16 5 40 6 54 2 14 4 27 5 30 1 3 2 9 1 14 -1 5 1 16 5 25 4
9 9 23 10 31 5 23 12 55 14 58 4 4 7 22 9 43 0 11 5 18 9 15 4 -2 8 3 9 12 3
35 34 112 45 112 4 0 8 7 8 15 0 8 5 15 10 15 6 0 10 7 10 15 0 21 137 158
150 150 6 -3 10 -1 10 5 0 6 10 14 23 19 12 5 36 15 52 22 17 6 35 13 40 15 6
2 21 6 35 10 31 9 281 13 295 5 11 -6 28 -10 63 -13 12 -1 22 -5 22 -9 0 -4
10 -5 22 -1 12 3 17 7 10 10 -7 2 -10 8 -6 13 3 5 0 9 -6 9 -6 0 -8 5 -5 10 3
6 -1 10 -10 10 -9 0 -14 4 -11 8 3 5 -6 15 -19 22 -14 7 -27 22 -31 32 -3 10
-9 16 -14 13 -5 -3 -11 -1 -14 4 -14 23 -105 63 -167 73 -52 9 -83 9 -134 -1
-37 -6 -69 -11 -71 -9 -7 7 29 67 37 62 5 -3 9 1 9 8 0 12 52 68 63 68 3 0 18
5 34 12 32 13 133 17 133 5 0 -5 4 -6 9 -3 13 8 121 -48 161 -84 75 -66 90
-80 90 -87 1 -4 14 -24 30 -43 17 -19 30 -40 30 -48 0 -7 5 -10 10 -7 6 3 10
-2 10 -12 0 -10 9 -24 20 -31 11 -7 20 -19 20 -27 0 -8 5 -15 12 -15 6 0 9 -3
5 -6 -3 -3 6 -17 20 -30 19 -18 29 -21 39 -14 8 8 14 8 19 0 3 -6 12 -7 18 -3
6 4 27 6 47 5 19 -1 41 -2 48 -2 6 0 19 0 27 0 37 0 76 0 88 0 31 1 125 -7
133 -12 5 -3 19 -4 32 -3 12 1 22 -1 22 -4 0 -4 12 -8 27 -9 15 -1 30 -7 34
-13 3 -6 9 -10 13 -10 3 1 7 1 9 0 1 0 11 -2 21 -4 10 -2 22 -7 25 -12 3 -4
12 -9 20 -11 11 -2 12 0 3 11 -7 8 -9 17 -5 20 3 4 1 7 -5 7 -7 0 -11 3 -10 8
1 4 -3 17 -10 28 -6 12 -8 24 -5 28 3 3 2 7 -3 7 -5 1 -22 3 -39 5 -41 4 -58
8 -72 17 -6 4 -14 3 -17 -2 -3 -5 -22 -3 -43 5 -21 7 -48 13 -60 14 -24 0
-167 71 -192 95 -9 8 -31 28 -48 44 -18 16 -33 33 -33 38 0 5 -9 15 -20 23
-11 8 -20 20 -20 26 0 6 -9 23 -21 38 -11 14 -17 30 -14 36 3 5 0 10 -7 10 -7
0 -14 10 -15 23 -4 36 -9 56 -16 63 -12 12 -8 26 6 18 9 -6 9 -5 0 7 -8 10
-11 38 -7 85 2 38 5 81 6 97 1 15 5 27 9 27 3 0 6 8 6 18 -1 35 16 102 26 102
5 0 5 6 -2 14 -10 11 -56 14 -240 14 l-228 -1 1 -31 c0 -17 4 -33 7 -36 4 -3
9 -18 10 -35 2 -16 6 -32 9 -35 10 -10 27 -90 19 -90 -5 0 -18 17 -29 38 -12
20 -31 55 -43 77 -12 22 -25 42 -29 45 -9 7 -32 63 -30 73 1 4 -2 7 -6 7 -4 0
-14 17 -21 38 -8 20 -18 40 -23 43 -5 3 -11 12 -12 20 -2 8 -6 22 -10 31 -4 9
-9 22 -10 30 -1 7 -9 27 -18 43 -14 28 -31 82 -26 87 1 2 -4 13 -11 26 -16 31
-49 154 -55 212 -1 9 -6 22 -11 29 -6 10 -4 12 4 6 10 -6 11 -3 2 13 -15 29
-22 81 -25 199 -4 115 3 136 32 110 10 -9 24 -17 30 -17 7 0 12 -4 12 -10 0
-5 9 -10 21 -10 11 0 18 -4 15 -8 -2 -4 4 -9 15 -9 13 -1 19 4 17 15 -2 9 -6
20 -10 23 -5 3 -9 17 -10 32 -1 15 -5 27 -9 27 -6 0 -30 72 -35 105 -1 11 -3
22 -5 25 -1 3 -3 10 -4 15 -2 6 -4 12 -5 15 -2 5 -4 15 -14 65 -7 30 -14 94
-21 190 -2 28 -4 50 -5 50 -7 0 -4 123 2 132 5 6 5 14 0 17 -8 5 -8 38 1 194
3 39 1 73 -4 73 -5 1 -19 2 -31 2 -13 1 -26 6 -30 11 -5 8 -8 8 -8 0z m-250
-3318 c0 -2 -7 -9 -15 -16 -13 -11 -14 -10 -9 4 5 14 24 23 24 12z m1881 -488
c1 -7 1 -16 0 -20 0 -5 4 -8 9 -8 6 0 10 -5 10 -10 0 -10 14 -43 71 -166 16
-34 29 -64 29 -68 0 -3 14 -35 30 -71 38 -83 39 -101 3 -100 -16 0 -31 -4 -34
-8 -4 -5 -18 -9 -33 -9 -14 0 -26 -3 -26 -7 0 -4 -21 -6 -47 -6 -27 0 -53 -3
-59 -8 -7 -4 -25 -5 -40 -2 -16 4 -35 7 -42 7 -26 2 -58 61 -56 103 4 55 8 71
22 87 6 8 9 18 5 21 -3 4 -1 7 6 7 7 0 9 5 6 10 -3 6 -2 10 4 10 5 0 12 14 16
30 4 17 11 30 16 30 6 0 7 5 4 10 -3 6 -1 10 6 10 7 0 9 3 6 7 -4 3 -1 13 5
21 7 7 13 23 15 34 2 11 10 26 18 34 8 9 15 22 15 30 0 29 39 58 41 32z"/>
<path d="M2995 5781 c-3 -6 -26 -9 -51 -7 -46 3 -46 3 -23 -15 13 -10 25 -16
28 -14 2 2 10 -2 17 -10 8 -8 22 -11 31 -8 11 4 14 3 9 -5 -4 -7 -1 -12 8 -12
9 0 16 -4 16 -10 0 -5 9 -10 20 -10 11 0 20 -4 20 -10 0 -5 7 -10 15 -10 8 0
15 -4 15 -10 0 -5 7 -10 15 -10 8 0 15 -5 15 -12 0 -6 3 -9 6 -5 6 5 15 0 49
-31 8 -7 15 -11 15 -7 0 6 16 -6 54 -42 13 -12 27 -19 30 -16 3 3 8 -2 12 -11
3 -9 13 -16 21 -16 8 0 11 -4 8 -10 -3 -5 3 -10 15 -10 12 0 18 -4 15 -10 -3
-5 -1 -10 5 -10 6 0 29 -18 50 -39 22 -22 40 -37 40 -34 0 2 38 -34 85 -82 47
-47 85 -88 85 -91 0 -2 16 -19 35 -37 19 -17 35 -38 35 -45 0 -7 5 -10 10 -7
6 3 10 0 10 -7 0 -8 9 -20 20 -28 11 -8 20 -18 20 -22 0 -4 8 -16 18 -26 28
-30 62 -72 60 -75 -6 -7 84 -101 99 -104 20 -4 86 -53 72 -54 -8 0 -4 -5 8
-11 13 -6 25 -19 28 -29 4 -11 11 -19 17 -19 5 0 7 -8 4 -17 -4 -10 -4 -14 0
-10 7 7 31 -37 39 -73 2 -8 8 -30 14 -47 5 -18 7 -33 4 -33 -3 0 0 -7 7 -15 9
-11 9 -15 1 -15 -8 0 -9 -6 -3 -17 9 -18 8 -125 -2 -173 -13 -69 -14 -91 -3
-103 14 -14 97 -146 97 -153 0 -3 7 -12 15 -21 8 -8 13 -19 9 -24 -3 -5 0 -8
6 -7 7 2 14 -5 15 -14 2 -10 10 -25 19 -34 9 -8 16 -22 16 -30 0 -8 3 -14 8
-14 4 0 18 -24 32 -53 14 -28 28 -54 31 -57 8 -7 22 -44 21 -52 -1 -5 3 -8 9
-8 5 0 7 -4 4 -10 -3 -5 -1 -10 4 -10 6 0 11 -9 11 -19 0 -11 5 -23 10 -26 6
-3 10 -15 10 -26 0 -10 5 -19 11 -19 6 0 9 -7 5 -15 -3 -8 -1 -15 5 -15 6 0 7
-4 4 -10 -3 -5 -1 -10 5 -10 6 0 8 -4 5 -10 -3 -5 -1 -10 5 -10 6 0 8 -5 4
-12 -6 -10 -5 -10 8 -1 8 7 19 9 23 5 5 -4 5 -1 1 6 -4 7 -1 12 8 12 9 0 16 4
16 9 0 5 11 12 25 15 14 4 25 11 25 16 0 6 4 10 10 10 10 0 37 20 72 53 10 9
21 18 26 19 9 3 43 32 91 77 20 19 30 31 22 26 -10 -5 -12 -4 -7 3 4 7 14 12
22 12 8 0 13 4 10 9 -3 5 1 12 10 15 8 3 12 11 8 17 -4 8 -3 9 5 5 6 -4 14 0
18 11 4 10 9 20 12 23 27 23 113 184 104 194 -3 3 0 6 7 6 7 0 10 3 7 7 -4 3
-3 11 2 17 6 7 12 23 14 36 3 14 10 43 15 65 19 71 21 95 9 95 -8 0 -7 3 2 9
8 5 11 16 8 25 -4 9 -3 16 1 16 4 0 6 21 5 47 -4 86 -11 188 -13 191 -2 1 -4
11 -5 22 -1 11 -3 21 -5 23 -1 1 -3 13 -5 27 -10 69 -18 106 -27 118 -6 6 -7
12 -3 12 4 0 3 6 -2 13 -6 6 -9 20 -8 29 2 9 -3 19 -11 22 -7 3 -11 12 -8 21
3 8 1 15 -5 15 -6 0 -11 3 -10 8 1 4 -2 16 -5 27 -4 11 -7 24 -6 28 0 4 -6 15
-15 23 -8 9 -13 19 -10 24 3 5 2 10 -3 12 -4 1 -30 39 -57 83 -27 44 -64 95
-82 113 -18 17 -30 32 -26 32 3 0 -6 11 -21 25 -14 13 -26 29 -26 35 0 5 -6
10 -12 10 -7 0 -26 16 -43 35 -16 19 -35 35 -42 35 -7 0 -13 8 -14 18 0 9 -3
12 -5 6 -3 -7 -19 1 -39 20 -38 35 -117 86 -134 86 -6 0 -11 4 -11 9 0 5 -11
12 -25 15 -14 4 -25 11 -25 16 0 5 -7 7 -15 4 -8 -4 -15 -1 -15 6 0 6 -5 8
-10 5 -6 -3 -13 1 -16 10 -5 12 -9 13 -20 4 -11 -9 -14 -8 -14 4 0 9 -7 14
-17 13 -10 -2 -21 1 -24 6 -3 5 -16 10 -27 11 -12 1 -22 5 -22 10 0 4 -6 7
-12 6 -25 -3 -39 1 -33 10 3 6 -6 8 -21 5 -14 -3 -23 -1 -20 5 3 5 -3 7 -14 4
-11 -3 -20 -1 -20 4 0 5 -12 9 -27 10 -48 2 -73 7 -73 15 0 4 -3 7 -7 7 -34
-6 -93 3 -87 12 5 8 1 8 -13 0 -14 -7 -23 -7 -31 1 -9 9 -12 8 -12 -3 -1 -10
-3 -9 -11 4 -8 14 -14 15 -24 7 -10 -8 -19 -8 -34 0 -16 8 -21 8 -21 -2 0 -9
-3 -9 -10 2 -8 12 -10 12 -10 1 0 -9 -4 -10 -12 -4 -7 5 -40 8 -73 7 -34 -1
-66 3 -74 9 -9 7 -12 8 -8 1 8 -14 -135 -13 -145 1 -5 7 -8 7 -8 0 0 -13 -199
-14 -219 -1 -9 6 -12 5 -8 -1 7 -12 -112 -12 -130 0 -6 4 -14 3 -18 -2z"/>
<path d="M2867 5557 c-3 -7 -4 -29 -2 -49 1 -23 -2 -35 -8 -31 -6 4 -7 1 -2
-6 4 -7 9 -45 11 -84 7 -134 9 -157 14 -157 3 0 7 -16 8 -37 2 -20 6 -41 9
-46 3 -5 7 -21 9 -36 3 -27 11 -64 14 -68 2 -2 3 -7 4 -12 0 -5 4 -13 9 -17
12 -12 8 -26 -5 -18 -10 6 -10 5 -1 -8 7 -8 11 -17 9 -19 -2 -2 7 -12 20 -22
15 -11 24 -13 24 -6 0 8 4 8 15 -1 12 -10 15 -10 15 0 0 10 3 10 15 0 12 -10
15 -10 15 0 0 10 3 10 15 0 12 -10 15 -10 15 0 0 10 3 10 15 0 8 -7 15 -8 15
-3 0 5 9 9 20 9 11 0 20 -4 20 -9 0 -5 7 -4 15 3 10 8 15 9 15 1 0 -7 8 -8 25
-1 17 7 25 6 25 -1 0 -8 5 -7 15 1 12 10 15 10 15 0 0 -9 3 -10 13 -1 8 6 17
8 21 4 9 -9 137 -11 157 -2 8 4 21 4 29 -1 9 -5 19 -5 27 2 9 7 13 7 13 -2 0
-10 3 -10 15 0 12 10 15 10 15 0 0 -10 3 -10 15 0 12 10 15 10 15 0 0 -10 3
-10 15 0 12 10 15 10 15 0 0 -10 3 -10 15 0 12 10 15 10 15 0 0 -10 3 -10 15
0 9 7 15 8 15 2 0 -11 18 -11 38 1 6 5 12 4 12 -1 0 -11 66 -10 77 2 5 5 3 6
-4 2 -7 -4 -13 -2 -13 4 0 6 -4 8 -10 5 -5 -3 -10 1 -10 10 0 9 -4 13 -10 10
-5 -3 -10 1 -10 9 0 8 -9 18 -20 21 -11 4 -18 11 -15 16 4 5 -1 9 -10 9 -9 0
-13 5 -10 10 3 6 1 10 -5 10 -6 0 -21 10 -34 23 -50 48 -138 122 -142 119 -8
-5 -51 43 -46 52 3 5 0 6 -6 2 -6 -3 -17 1 -25 9 -9 8 -18 15 -21 15 -3 0 -17
11 -32 25 -15 14 -29 23 -32 20 -2 -2 -16 8 -31 24 -14 15 -32 26 -38 24 -7
-3 -13 0 -13 6 0 6 -16 17 -36 26 -24 10 -33 19 -28 27 4 7 4 10 -1 6 -4 -4
-14 -3 -22 4 -7 6 -16 8 -19 5 -4 -3 -12 -1 -20 6 -35 32 -46 39 -66 42 -12 3
-24 8 -27 12 -8 11 -64 37 -73 35 -5 -1 -8 3 -8 8 0 6 -9 10 -20 10 -11 0 -20
4 -20 8 0 13 -38 12 -43 -1z"/>
<path d="M2844 4573 c-4 -10 -6 -24 -5 -30 1 -7 -2 -13 -7 -13 -5 0 -8 -16 -7
-35 1 -20 -2 -38 -7 -41 -5 -3 -4 -12 3 -20 9 -11 9 -14 0 -14 -7 0 -9 -5 -6
-10 4 -6 8 -52 10 -103 4 -90 13 -168 21 -176 2 -2 4 3 4 13 0 11 4 15 13 10
9 -6 9 -5 0 8 -7 8 -10 18 -6 21 3 4 0 7 -8 7 -11 0 -11 2 1 10 8 5 11 10 6
10 -5 0 -2 8 5 17 8 9 9 14 4 11 -12 -7 -13 190 -2 209 4 6 3 14 -1 17 -11 7
-9 46 2 65 6 10 5 12 -3 7 -8 -5 -10 1 -6 23 6 34 1 40 -11 14z"/>
<path d="M3642 3723 c-28 -14 -49 -30 -46 -35 4 -6 1 -14 -6 -18 -15 -9 -23
-100 -9 -100 5 0 9 -8 9 -18 0 -10 15 -27 33 -37 33 -21 113 -29 123 -14 3 5
10 7 15 4 5 -4 9 -2 9 2 0 5 11 21 25 36 14 15 23 27 19 27 -3 0 -1 7 6 15 10
12 10 15 0 15 -10 0 -10 3 0 15 8 10 9 15 2 15 -6 0 -9 6 -6 13 3 8 -2 20 -11
27 -8 7 -15 17 -15 22 0 20 -31 38 -70 42 -8 0 -17 4 -20 8 -3 4 -29 -4 -58
-19z"/>
<path d="M2818 2369 c-10 -5 -18 -8 -18 -5 0 3 -13 -7 -29 -22 -15 -15 -26
-30 -24 -35 2 -4 -3 -10 -11 -13 -8 -3 -18 -14 -21 -25 -4 -10 -13 -26 -21
-34 -8 -8 -16 -24 -17 -35 -1 -11 -6 -20 -11 -20 -5 0 -6 -3 -3 -6 3 -4 2 -15
-4 -26 -11 -20 -14 -82 -7 -128 5 -30 38 -100 47 -100 3 0 18 -10 31 -22 14
-13 32 -24 40 -26 8 -2 18 -8 21 -13 3 -6 12 -11 20 -13 29 -5 59 -18 59 -25
0 -4 7 -8 15 -9 8 -1 22 -3 30 -4 8 -1 15 -5 15 -10 0 -5 4 -7 9 -3 5 3 12 1
16 -5 4 -6 11 -8 16 -5 5 4 9 1 9 -4 0 -6 11 -11 25 -11 14 0 25 -5 25 -11 0
-5 5 -7 10 -4 6 3 10 2 10 -4 0 -6 6 -8 14 -5 8 3 17 0 21 -5 3 -6 10 -9 15
-6 5 3 11 1 15 -4 3 -6 12 -8 20 -4 8 3 15 0 15 -7 0 -6 5 -8 10 -5 6 3 10 2
10 -3 0 -6 8 -8 19 -5 10 3 22 0 25 -6 4 -6 18 -11 31 -11 18 0 23 5 20 23 -6
35 -10 51 -16 62 -4 6 -5 20 -4 33 1 12 -2 22 -5 22 -4 0 -11 15 -15 33 -9 35
-8 33 -18 63 -7 20 -13 21 -179 21 -134 -1 -173 2 -176 12 -3 10 0 11 9 5 11
-6 12 -5 3 7 -12 16 -11 80 1 99 5 9 4 11 -4 6 -12 -8 -9 53 5 75 4 8 3 9 -4
5 -13 -8 -11 41 2 62 4 7 3 12 -3 12 -10 0 -7 102 5 121 4 8 3 9 -4 5 -7 -4
-12 -1 -12 8 0 18 -8 20 -32 5z"/>
<path d="M5002 1849 c2 -7 -3 -13 -10 -14 -7 0 -16 -5 -20 -11 -4 -5 -24 -20
-44 -33 -21 -12 -38 -28 -38 -33 0 -6 -3 -9 -6 -5 -4 3 -13 -1 -21 -9 -13 -12
-13 -20 -2 -47 7 -18 14 -33 15 -35 4 -5 44 37 44 46 0 4 9 13 20 20 12 7 18
16 16 21 -3 5 5 20 19 35 13 14 21 26 18 26 -3 0 2 9 11 19 12 13 14 21 6 26
-6 3 -9 1 -8 -6z"/>
</g>
</svg>
